<svg xmlns="http://www.w3.org/2000/svg" width="667.04052734375" height="661.18701171875" viewBox="-252.5360107421875 -263.87872314453125 667.04052734375 661.18701171875"><title>Neo4j Graph Visualization</title><desc>Created using Neo4j (http://www.neo4j.com/)</desc><g class="layer relationships"><g class="relationship" transform="translate(112.50937575193763 368.30825344820425) rotate(209.45193127389535)"><path class="outline" fill="#A5ABB6" stroke="none" d="M 25 0.5 L 45.14847973632084 0.5 L 45.14847973632084 -0.5 L 25 -0.5 Z M 84.94144848632084 0.5 L 105.08992822264167 0.5 L 105.08992822264167 3.5 L 112.08992822264167 0 L 105.08992822264167 -3.5 L 105.08992822264167 -0.5 L 84.94144848632084 -0.5 Z"/><text text-anchor="middle" pointer-events="none" font-size="8px" fill="#000000" x="65.04496411132084" y="3" transform="rotate(180 65.04496411132084 0)" font-family="sans-serif">APPLIED</text></g><g class="relationship" transform="translate(112.50937575193763 368.30825344820425) rotate(310.22107984441845)"><path class="outline" fill="#A5ABB6" stroke="none" d="M 25 0.5 L 33.75864073273269 0.5 L 33.75864073273269 -0.5 L 25 -0.5 Z M 95.17660948273269 0.5 L 103.93525021546537 0.5 L 103.93525021546537 3.5 L 110.93525021546537 0 L 103.93525021546537 -3.5 L 103.93525021546537 -0.5 L 95.17660948273269 -0.5 Z"/><text text-anchor="middle" pointer-events="none" font-size="8px" fill="#000000" x="64.46762510773269" y="3" font-family="sans-serif">INTERVIEWED</text></g><g class="relationship" transform="translate(209.461447127134 136.46224652632978) rotate(208.7804576141608)"><path class="outline" fill="#A5ABB6" stroke="none" d="M 25 0.5 L 30.001443085100817 0.5 L 30.001443085100817 -0.5 L 25 -0.5 Z M 91.41941183510082 0.5 L 96.42085492020163 0.5 L 96.42085492020163 3.5 L 103.42085492020163 0 L 96.42085492020163 -3.5 L 96.42085492020163 -0.5 L 91.41941183510082 -0.5 Z"/><text text-anchor="middle" pointer-events="none" font-size="8px" fill="#000000" x="60.71042746010082" y="3" transform="rotate(180 60.71042746010082 0)" font-family="sans-serif">INTERVIEWED</text></g><g class="relationship" transform="translate(209.461447127134 136.46224652632978) rotate(307.1219746028058)"><path class="outline" fill="#A5ABB6" stroke="none" d="M 25 0.5 L 25.641964861461403 0.5 L 25.641964861461403 -0.5 L 25 -0.5 Z M 87.0599336114614 0.5 L 87.7018984729228 0.5 L 87.7018984729228 3.5 L 94.7018984729228 0 L 87.7018984729228 -3.5 L 87.7018984729228 -0.5 L 87.0599336114614 -0.5 Z"/><text text-anchor="middle" pointer-events="none" font-size="8px" fill="#000000" x="56.3509492364614" y="3" font-family="sans-serif">INTERVIEWED</text></g><g class="relationship" transform="translate(209.461447127134 136.46224652632978) rotate(454.09758763003975)"><path class="outline" fill="#A5ABB6" stroke="none" d="M 25 0.5 L 29.98084340713487 0.5 L 29.98084340713487 -0.5 L 25 -0.5 Z M 91.39881215713487 0.5 L 96.37965556426974 0.5 L 96.37965556426974 3.5 L 103.37965556426974 0 L 96.37965556426974 -3.5 L 96.37965556426974 -0.5 L 91.39881215713487 -0.5 Z"/><text text-anchor="middle" pointer-events="none" font-size="8px" fill="#000000" x="60.68982778213487" y="3" transform="rotate(180 60.68982778213487 0)" font-family="sans-serif">INTERVIEWED</text></g><g class="relationship" transform="translate(178.93924658746337 -9.936593881109536) rotate(494.1282545429282)"><path class="outline" fill="#A5ABB6" stroke="none" d="M 25 0.5 L 26.258222026999995 0.5 L 26.258222026999995 -0.5 L 25 -0.5 Z M 84.56290952699999 0.5 L 85.82113155399999 0.5 L 85.82113155399999 3.5 L 92.82113155399999 0 L 85.82113155399999 -3.5 L 85.82113155399999 -0.5 L 84.56290952699999 -0.5 Z"/><text text-anchor="middle" pointer-events="none" font-size="8px" fill="#000000" x="55.410565776999995" y="3" transform="rotate(180 55.410565776999995 0)" font-family="sans-serif">INTERVIEW…</text></g><g class="relationship" transform="translate(178.93924658746337 -9.936593881109536) rotate(386.3739424121726)"><path class="outline" fill="#A5ABB6" stroke="none" d="M 25 0.5 L 28.4745149339373 0.5 L 28.4745149339373 -0.5 L 25 -0.5 Z M 79.2284211839373 0.5 L 82.7029361178746 0.5 L 82.7029361178746 3.5 L 89.7029361178746 0 L 82.7029361178746 -3.5 L 82.7029361178746 -0.5 L 79.2284211839373 -0.5 Z"/><text text-anchor="middle" pointer-events="none" font-size="8px" fill="#000000" x="53.8514680589373" y="3" font-family="sans-serif">INTERVIE…</text></g><g class="relationship" transform="translate(102.49006215442019 309.21343973776703) rotate(184.3463566597565)"><path class="outline" fill="#A5ABB6" stroke="none" d="M 25 0.5 L 31.438352348039615 0.5 L 31.438352348039615 -0.5 L 25 -0.5 Z M 71.23132109803961 0.5 L 77.66967344607923 0.5 L 77.66967344607923 3.5 L 84.66967344607923 0 L 77.66967344607923 -3.5 L 77.66967344607923 -0.5 L 71.23132109803961 -0.5 Z"/><text text-anchor="middle" pointer-events="none" font-size="8px" fill="#000000" x="51.334836723039615" y="3" transform="rotate(180 51.334836723039615 0)" font-family="sans-serif">APPLIED</text></g><g class="relationship" transform="translate(102.49006215442019 309.21343973776703) rotate(335.4366743828434)"><path class="outline" fill="#A5ABB6" stroke="none" d="M 25 0.5 L 27.55555838794794 0.5 L 27.55555838794794 -0.5 L 25 -0.5 Z M 72.97352713794794 0.5 L 75.52908552589588 0.5 L 75.52908552589588 3.5 L 82.52908552589588 0 L 75.52908552589588 -3.5 L 75.52908552589588 -0.5 L 72.97352713794794 -0.5 Z"/><text text-anchor="middle" pointer-events="none" font-size="8px" fill="#000000" x="50.26454276294794" y="3" font-family="sans-serif">INTERVI…</text></g><g class="relationship" transform="translate(385.5045506592173 83.95938870240663) rotate(202.47447146057107)"><path class="outline" fill="#A5ABB6" stroke="none" d="M 25 0.5 L 27.28957300963556 0.5 L 27.28957300963556 -0.5 L 25 -0.5 Z M 78.04347925963556 0.5 L 80.33305226927112 0.5 L 80.33305226927112 3.5 L 87.33305226927112 0 L 80.33305226927112 -3.5 L 80.33305226927112 -0.5 L 78.04347925963556 -0.5 Z"/><text text-anchor="middle" pointer-events="none" font-size="8px" fill="#000000" x="52.66652613463556" y="3" transform="rotate(180 52.66652613463556 0)" font-family="sans-serif">INTERVIE…</text></g><g class="relationship" transform="translate(333.9890054817632 -59.090555681425364) rotate(477.57774939544794)"><path class="outline" fill="#A5ABB6" stroke="none" d="M 25 0.5 L 27.593073250677783 0.5 L 27.593073250677783 -0.5 L 25 -0.5 Z M 78.34697950067778 0.5 L 80.94005275135557 0.5 L 80.94005275135557 3.5 L 87.94005275135557 0 L 80.94005275135557 -3.5 L 80.94005275135557 -0.5 L 78.34697950067778 -0.5 Z"/><text text-anchor="middle" pointer-events="none" font-size="8px" fill="#000000" x="52.97002637567778" y="3" transform="rotate(180 52.97002637567778 0)" font-family="sans-serif">INTERVIE…</text></g><g class="relationship" transform="translate(17.534981940860035 -9.455270655307729) rotate(406.6537875471326)"><path class="outline" fill="#A5ABB6" stroke="none" d="M 25 0.5 L 25.162869585371162 0.5 L 25.162869585371162 -0.5 L 25 -0.5 Z M 83.46755708537117 0.5 L 83.63042667074232 0.5 L 83.63042667074232 3.5 L 90.63042667074232 0 L 83.63042667074232 -3.5 L 83.63042667074232 -0.5 L 83.46755708537117 -0.5 Z"/><text text-anchor="middle" pointer-events="none" font-size="8px" fill="#000000" x="54.31521333537116" y="3" font-family="sans-serif">INTERVIEW…</text></g><g class="relationship" transform="translate(-119.91748076710394 302.60713772469643) rotate(359.1359306556908)"><path class="outline" fill="#A5ABB6" stroke="none" d="M 25 0.5 L 33.13657607382559 0.5 L 33.13657607382559 -0.5 L 25 -0.5 Z M 72.92954482382558 0.5 L 81.06612089765117 0.5 L 81.06612089765117 3.5 L 88.06612089765117 0 L 81.06612089765117 -3.5 L 81.06612089765117 -0.5 L 72.92954482382558 -0.5 Z"/><text text-anchor="middle" pointer-events="none" font-size="8px" fill="#000000" x="53.03306044882559" y="3" font-family="sans-serif">APPLIED</text></g><g class="relationship" transform="translate(1.5003257919869375 167.8219046509558) rotate(453.59650436356435)"><path class="outline" fill="#A5ABB6" stroke="none" d="M 25 0.5 L 43.27490305740537 0.5 L 43.27490305740537 -0.5 L 25 -0.5 Z M 83.06787180740537 0.5 L 101.34277486481074 0.5 L 101.34277486481074 3.5 L 108.34277486481074 0 L 101.34277486481074 -3.5 L 101.34277486481074 -0.5 L 83.06787180740537 -0.5 Z"/><text text-anchor="middle" pointer-events="none" font-size="8px" fill="#000000" x="63.17138743240537" y="3" transform="rotate(180 63.17138743240537 0)" font-family="sans-serif">APPLIED</text></g><g class="relationship" transform="translate(1.5003257919869375 167.8219046509558) rotate(315.6730493142047)"><path class="outline" fill="#A5ABB6" stroke="none" d="M 25 0.5 L 32.473120971152056 0.5 L 32.473120971152056 -0.5 L 25 -0.5 Z M 93.89108972115206 0.5 L 101.36421069230411 0.5 L 101.36421069230411 3.5 L 108.36421069230411 0 L 101.36421069230411 -3.5 L 101.36421069230411 -0.5 L 93.89108972115206 -0.5 Z"/><text text-anchor="middle" pointer-events="none" font-size="8px" fill="#000000" x="63.182105346152056" y="3" font-family="sans-serif">INTERVIEWED</text></g><g class="relationship" transform="translate(89.3305093674592 243.66171648018042) rotate(509.24537943609215)"><path class="outline" fill="#A5ABB6" stroke="none" d="M 25 0.5 L 32.5719962673664 0.5 L 32.5719962673664 -0.5 L 25 -0.5 Z M 72.3649650173664 0.5 L 79.9369612847328 0.5 L 79.9369612847328 3.5 L 86.9369612847328 0 L 79.9369612847328 -3.5 L 79.9369612847328 -0.5 L 72.3649650173664 -0.5 Z"/><text text-anchor="middle" pointer-events="none" font-size="8px" fill="#000000" x="52.4684806423664" y="3" transform="rotate(180 52.4684806423664 0)" font-family="sans-serif">APPLIED</text></g><g class="relationship" transform="translate(89.3305093674592 243.66171648018042) rotate(370.64334181886625)"><path class="outline" fill="#A5ABB6" stroke="none" d="M 25 0.5 L 27.572972062207633 0.5 L 27.572972062207633 -0.5 L 25 -0.5 Z M 78.32687831220764 0.5 L 80.89985037441527 0.5 L 80.89985037441527 3.5 L 87.89985037441527 0 L 80.89985037441527 -3.5 L 80.89985037441527 -0.5 L 78.32687831220764 -0.5 Z"/><text text-anchor="middle" pointer-events="none" font-size="8px" fill="#000000" x="52.94992518720763" y="3" font-family="sans-serif">INTERVIE…</text></g></g><g class="layer nodes"><g class="node" transform="translate(-6.864217063417875,300.9020685803247)"><circle class="outline" cx="0" cy="0" r="25" fill="#F16667" stroke="#eb2728" stroke-width="2px"/><text text-anchor="middle" pointer-events="none" font-family="sans-serif" dy="1.5625" font-size="25" fill="#FFFFFF"/><text text-anchor="middle" pointer-events="none" y="5" font-size="10px" fill="#FFFFFF" font-family="sans-serif"> Facebook</text></g><g class="node" transform="translate(200.28802129601016,264.51373703433364)"><circle class="outline" cx="0" cy="0" r="25" fill="#F79767" stroke="#f36924" stroke-width="2px"/><text text-anchor="middle" pointer-events="none" font-family="sans-serif" dy="1.5625" font-size="25" fill="#FFFFFF"/><text text-anchor="middle" pointer-events="none" y="5" font-size="10px" fill="#FFFFFF" font-family="sans-serif"> Saurabh</text></g><g class="node" transform="translate(281.70319953895176,41.01763585348172)"><circle class="outline" cx="0" cy="0" r="25" fill="#F79767" stroke="#f36924" stroke-width="2px"/><text text-anchor="middle" pointer-events="none" font-family="sans-serif" dy="1.5625" font-size="25" fill="#FFFFFF"/><text text-anchor="middle" pointer-events="none" y="5" font-size="10px" fill="#FFFFFF" font-family="sans-serif"> Amrita</text></g><g class="node" transform="translate(96.90429904232505,74.63341511694709)"><circle class="outline" cx="0" cy="0" r="25" fill="#F79767" stroke="#f36924" stroke-width="2px"/><text text-anchor="middle" pointer-events="none" font-family="sans-serif" dy="1.5625" font-size="25" fill="#FFFFFF"/><text text-anchor="middle" pointer-events="none" y="5" font-size="10px" fill="#FFFFFF" font-family="sans-serif"> Divya</text></g><g class="node" transform="translate(112.50937575193763,368.30825344820425)"><circle class="outline" cx="0" cy="0" r="25" fill="#57C7E3" stroke="#23b3d7" stroke-width="2px"/><text text-anchor="middle" pointer-events="none" font-family="sans-serif" dy="1.5625" font-size="25" fill="#2A2C34"/><text text-anchor="middle" pointer-events="none" y="5" font-size="10px" fill="#2A2C34" font-family="sans-serif"> Alex</text></g><g class="node" transform="translate(209.461447127134,136.46224652632978)"><circle class="outline" cx="0" cy="0" r="25" fill="#57C7E3" stroke="#23b3d7" stroke-width="2px"/><text text-anchor="middle" pointer-events="none" font-family="sans-serif" dy="1.5625" font-size="25" fill="#2A2C34"/><text text-anchor="middle" pointer-events="none" y="5" font-size="10px" fill="#2A2C34" font-family="sans-serif"> Meghan</text></g><g class="node" transform="translate(178.93924658746337,-9.936593881109536)"><circle class="outline" cx="0" cy="0" r="25" fill="#57C7E3" stroke="#23b3d7" stroke-width="2px"/><text text-anchor="middle" pointer-events="none" font-family="sans-serif" dy="1.5625" font-size="25" fill="#2A2C34"/><text text-anchor="middle" pointer-events="none" y="5" font-size="10px" fill="#2A2C34" font-family="sans-serif"> Marli</text></g><g class="node" transform="translate(122.2842190267746,-234.87870474510441)"><circle class="outline" cx="0" cy="0" r="25" fill="#57C7E3" stroke="#23b3d7" stroke-width="2px"/><text text-anchor="middle" pointer-events="none" font-family="sans-serif" dy="1.5625" font-size="25" fill="#2A2C34"/><text text-anchor="middle" pointer-events="none" y="5" font-size="10px" fill="#2A2C34" font-family="sans-serif"> Sandeep</text></g><g class="node" transform="translate(102.49006215442019,309.21343973776703)"><circle class="outline" cx="0" cy="0" r="25" fill="#57C7E3" stroke="#23b3d7" stroke-width="2px"/><text text-anchor="middle" pointer-events="none" font-family="sans-serif" dy="1.5625" font-size="25" fill="#2A2C34"/><text text-anchor="middle" pointer-events="none" y="5" font-size="10px" fill="#2A2C34" font-family="sans-serif"> Molly</text></g><g class="node" transform="translate(385.5045506592173,83.95938870240663)"><circle class="outline" cx="0" cy="0" r="25" fill="#57C7E3" stroke="#23b3d7" stroke-width="2px"/><text text-anchor="middle" pointer-events="none" font-family="sans-serif" dy="1.5625" font-size="25" fill="#2A2C34"/><text text-anchor="middle" pointer-events="none" y="5" font-size="10px" fill="#2A2C34" font-family="sans-serif"> Akshay</text></g><g class="node" transform="translate(333.9890054817632,-59.090555681425364)"><circle class="outline" cx="0" cy="0" r="25" fill="#57C7E3" stroke="#23b3d7" stroke-width="2px"/><text text-anchor="middle" pointer-events="none" font-family="sans-serif" dy="1.5625" font-size="25" fill="#2A2C34"/><text text-anchor="middle" pointer-events="none" y="5" font-size="10px" fill="#2A2C34" font-family="sans-serif"> Aditya</text></g><g class="node" transform="translate(17.534981940860035,-9.455270655307729)"><circle class="outline" cx="0" cy="0" r="25" fill="#57C7E3" stroke="#23b3d7" stroke-width="2px"/><text text-anchor="middle" pointer-events="none" font-family="sans-serif" dy="1.5625" font-size="25" fill="#2A2C34"/><text text-anchor="middle" pointer-events="none" y="5" font-size="10px" fill="#2A2C34" font-family="sans-serif"> Brandon</text></g><g class="node" transform="translate(-95.92692665452677,-164.38062135247205)"><circle class="outline" cx="0" cy="0" r="25" fill="#57C7E3" stroke="#23b3d7" stroke-width="2px"/><text text-anchor="middle" pointer-events="none" font-family="sans-serif" dy="1.5625" font-size="25" fill="#2A2C34"/><text text-anchor="middle" pointer-events="none" y="5" font-size="10px" fill="#2A2C34" font-family="sans-serif"> Pedro</text></g><g class="node" transform="translate(-119.91748076710394,302.60713772469643)"><circle class="outline" cx="0" cy="0" r="25" fill="#57C7E3" stroke="#23b3d7" stroke-width="2px"/><text text-anchor="middle" pointer-events="none" font-family="sans-serif" dy="1.5625" font-size="25" fill="#2A2C34"/><text text-anchor="middle" pointer-events="none" y="5" font-size="10px" fill="#2A2C34" font-family="sans-serif"> Ryan</text></g><g class="node" transform="translate(1.5003257919869375,167.8219046509558)"><circle class="outline" cx="0" cy="0" r="25" fill="#57C7E3" stroke="#23b3d7" stroke-width="2px"/><text text-anchor="middle" pointer-events="none" font-family="sans-serif" dy="1.5625" font-size="25" fill="#2A2C34"/><text text-anchor="middle" pointer-events="none" y="5" font-size="10px" fill="#2A2C34" font-family="sans-serif"> Xi</text></g><g class="node" transform="translate(89.3305093674592,243.66171648018042)"><circle class="outline" cx="0" cy="0" r="25" fill="#57C7E3" stroke="#23b3d7" stroke-width="2px"/><text text-anchor="middle" pointer-events="none" font-family="sans-serif" dy="1.5625" font-size="25" fill="#2A2C34"/><text text-anchor="middle" pointer-events="none" y="5" font-size="10px" fill="#2A2C34" font-family="sans-serif"> Simran</text></g><g class="node" transform="translate(-223.53600563169152,23.636262085894312)"><circle class="outline" cx="0" cy="0" r="25" fill="#57C7E3" stroke="#23b3d7" stroke-width="2px"/><text text-anchor="middle" pointer-events="none" font-family="sans-serif" dy="1.5625" font-size="25" fill="#2A2C34"/><text text-anchor="middle" pointer-events="none" y="5" font-size="10px" fill="#2A2C34" font-family="sans-serif"> Amanda</text></g></g></svg>